<svg version="1" xmlns="http://www.w3.org/2000/svg" width="346.667" height="346.667" viewBox="0 0 260.000000 260.000000"><path d="M0 130v130h260V0H0v130zm124-66.8c0 .4-.7 3.3-1.6 6.5-1.1 4.1-1.7 13-2.1 31l-.6 25.2 6.4-1.9c3.5-1.1 7.9-2 9.6-2 3.1 0 3.2.1 2.1 2.4-1 2.4-5.7 4.9-14 7.6-2.1.6-4 1.5-4.2 1.8-.5.9-3.1 26.8-4.7 47l-1.2 15.3-2.5-2.3c-2.4-2.3-2.4-2.5-1.8-13.8.3-6.3.9-18.6 1.3-27.3.6-14.5.5-15.7-1.2-15.7-2.4 0-12.6 2.6-21.8 5.6l-7.7 2.6-9.1 17.9C57.4 189.9 50 200 44 200c-1.7 0-2-.4-1.5-2.3.8-2.6 7.3-13.9 12.5-21.7 5.6-8.4 13-20.8 14.1-23.7.9-2.4.8-2.5-1.9-2-1.5.3-10 3.7-18.8 7.6-8.9 3.9-16.9 7.1-17.8 7.1-1.4 0-5.4-6.7-4.4-7.4.2-.2 8.6-3.1 18.8-6.5 10.2-3.5 21.9-7.6 26-9.2l7.6-2.9 6.1-10.7c3.3-6 11.3-21.4 17.6-34.3 6.4-12.9 13-25.9 14.7-28.7 2.8-4.8 3.2-5.2 5-4.1 1.1.7 2 1.6 2 2zm95 0c0 .4-.7 3.3-1.6 6.5-1.1 4.1-1.7 13-2.1 31l-.6 25.2 6.4-1.9c3.5-1.1 7.9-2 9.6-2 3.1 0 3.2.1 2.1 2.4-1 2.4-5.7 4.9-14 7.6-2.1.6-4 1.5-4.2 1.8-.5.9-3.1 26.8-4.7 47l-1.2 15.3-2.5-2.3c-2.4-2.3-2.4-2.5-1.8-13.8.3-6.3.9-18.6 1.3-27.3.6-14.5.5-15.7-1.2-15.7-2.4 0-12.6 2.6-21.8 5.6l-7.7 2.6-9.1 17.9C152.4 189.9 145 200 139 200c-1.7 0-2-.4-1.5-2.3.8-2.6 7.3-13.9 12.5-21.7 5.6-8.4 13-20.8 14.1-23.7.9-2.4.8-2.5-1.9-2-1.5.3-10 3.7-18.8 7.6-8.9 3.9-16.9 7.1-17.8 7.1-1.4 0-5.4-6.7-4.4-7.4.2-.2 8.6-3.1 18.8-6.5 10.2-3.5 21.9-7.6 26-9.2l7.6-2.9 6.1-10.7c3.3-6 11.3-21.4 17.6-34.3 6.4-12.9 13-25.9 14.7-28.7 2.8-4.8 3.2-5.2 5-4.1 1.1.7 2 1.6 2 2z"/><path d="M101.8 108.3c-7.6 14.3-13.6 26.2-13.4 26.5.8.7 10.6-1.9 17.2-4.5 7-2.7 7.4-3.6 7.4-14.7 0-3.3.7-12.1 1.6-19.5.8-7.3 1.4-13.4 1.2-13.6-.2-.1-6.5 11.5-14 25.8zM196.8 108.3c-7.6 14.3-13.6 26.2-13.4 26.5.8.7 10.6-1.9 17.2-4.5 7-2.7 7.4-3.6 7.4-14.7 0-3.3.7-12.1 1.6-19.5.8-7.3 1.4-13.4 1.2-13.6-.2-.1-6.5 11.5-14 25.8z"/></svg>