<?xml version="1.0" encoding="utf-8"?>
<!-- Generator: Adobe Illustrator 19.0.0, SVG Export Plug-In . SVG Version: 6.00 Build 0)  -->
<svg version="1.1" id="Layer_1" xmlns="http://www.w3.org/2000/svg" xmlns:xlink="http://www.w3.org/1999/xlink" x="0px" y="0px"
	 viewBox="-337 913 224 224" style="enable-background:new -337 913 224 224;" xml:space="preserve">
<style type="text/css">
	.st0{fill:#FFFFFF;}
</style>
<title>GitcoinLogo.min</title>
<desc>Created with Sketch.</desc>
<path id="Shape_6_" class="st0" d="M-217.1,945.9c-3.7,0-6.6-1.5-6.6-3.3v-26.1c0.2-1.8,3.1-3.2,6.6-3.2c3.6,0,6.5,1.4,6.6,3.2v26.1
	C-210.5,944.4-213.5,945.9-217.1,945.9"/>
<path id="Shape_9_" class="st0" d="M-213.5,1135.8c-55.8,0-101.1-45.4-101.1-101.1c0-55.8,45.4-101.1,101.1-101.1
	c26.8-0.1,52.6,10.6,71.5,29.6l6.6,6.6l-28.6,26.9l-12.4-13.2l14.6-13.8c-14.7-11.8-33-18.2-51.8-18.1c-45.9,0.1-83,37.2-83.1,83.1
	c0.1,45.8,37.2,83,83.1,83.1"/>
<path id="Shape_10_" class="st0" d="M-162.7,1083.9l-13-12.6c9.5-9.8,14.9-22.9,14.8-36.6c0-14.4-5.7-27.7-16-37.7l-6.8-6.6l7.3-6.8
	l6.2,6.6l5.9-6.1c13.8,13.3,21.5,31.6,21.4,50.7C-142.8,1053.1-149.9,1070.7-162.7,1083.9"/>
<path id="Shape_12_" class="st0" d="M-213.5,1022.9c-6.3,0.2-11.4,5.4-11.4,11.8c0,6.3,5,11.6,11.4,11.8c6.3-0.2,11.4-5.4,11.4-11.8
	C-202.1,1028.3-207.1,1023.1-213.5,1022.9 M-213.5,1064.5c-16.5,0-29.8-13.4-29.8-29.8c0-16.5,13.4-29.8,29.8-29.8
	c16.5,0,29.8,13.4,29.8,29.8C-183.7,1051.2-197,1064.5-213.5,1064.5 M-148.4,969.6l-52.6,48.6"/>
<polygon id="Shape_13_" class="st0" points="-154.5,962.9 -142.2,976.2 -194.8,1024.8 -207,1011.5 "/>
<polygon id="Shape_15_" class="st0" points="-136.4,1135.8 -215.1,1135.8 -215.1,1117.8 -154.5,1117.8 -154.5,1101.3 -209.1,1060.2 
	-198.2,1045.8 -136.4,1092.3 "/>
<path id="Shape_18_" class="st0" d="M-248.5,996.7c-3.7,0-6.6-3-6.6-6.6v-70.5c0.2-3.5,3.1-6.3,6.6-6.3c3.6,0,6.5,2.8,6.6,6.3v70.5
	C-241.9,993.7-244.8,996.7-248.5,996.7"/>
</svg>
